<svg viewBox="0 0 320 360" height="360" width="320"><g><svg></svg></g><g><svg viewBox="0 0 320 360" height="360" width="320"><g><path xmlns="http://www.w3.org/2000/svg" d="M20.961 227.22l3.726 4.658-1.863-6.056c-0.466-2.795-3.726 0.466-1.863 1.398M25.153 224.425c1.397 2.329 2.795 4.658 2.795 6.987 0 3.261 2.795 4.658 5.123 5.589-3.261-3.726-5.124-13.974-7.918-12.576M204.017 26.929c7.918 0 15.371-0.932 23.756 0.931 20.495 5.124 37.729 15.371 49.374 29.811l32.606 52.169c1.397 13.042 4.192 27.482 3.726 43.319 3.261 0 2.795-4.658 6.521-5.59-3.726 9.316-5.59 20.961-6.521 34.469-2.329-7.453 0-18.632 0.466-24.687-3.261 5.124-5.124 1.397-5.124-0.932 0.466-3.726-1.397-3.261-2.795-4.658-5.124-4.658-8.384-9.782-12.11-17.7 2.329-6.055 2.795-14.905-4.658-19.563-2.329-1.397-5.124-3.726-6.521-7.453-1.863-5.124-5.124-11.179-4.193-19.097 0.466-2.329-6.987 5.124-11.179 1.863-18.166-12.576-36.332-27.016-58.224-39.127-11.645 0-20.029-4.192-24.221-9.316-3.726-4.658-0.932-10.713 4.658-11.179 3.261 0 6.987-0.932 9.782 0.932 0.466-1.863 2.329-4.192 4.657-4.192M157.904 16.215l0.932 0.466c4.658 0.932 6.987 7.453 12.11 5.124 0 3.261 0.466 6.521-0.466 8.85-1.397 3.726-5.59 3.726-8.85 3.726-31.208-1.863-49.374 11.179-68.471 22.358-5.124 3.261-10.713 5.59-14.906 9.782-20.029 18.632-41.921 35.866-47.045 70.335l-4.192 38.195c-0.466 4.192-5.124 8.384-4.192 13.508l3.26 22.824c-3.261-3.261-5.124 0.932-4.192 2.795 0.466 1.397 2.329 6.055 5.124 1.863 3.726 6.987 7.453 20.495 12.576 26.55 15.837 18.632 36.332 35.4 53.101 52.169 4.192-0.932 7.453-0.932 8.384-3.727 1.397 2.795-1.397 5.59-3.726 6.056 7.453 4.658 15.837 8.85 27.016 9.781 14.44 0.932 27.948 3.261 40.524 6.522 6.521-1.863 13.042-2.795 20.029-3.261 2.329 0 3.726-3.726 6.521-4.658l0.466-4.658c2.795 4.192 2.329-1.397 0.466-4.192 3.261 2.795 4.192 5.124 5.589 6.987 0-1.397 3.726-6.521 3.727-0.466l0.931-6.055c1.397-0.932 1.863 5.124 3.261 0.931 1.397-4.192 4.192-0.932 6.987-2.329-0.932 1.863-0.466 5.59 2.794 3.261l3.727-3.261c2.329 5.59 6.055 3.261 7.918 2.329 20.495-13.042 40.99-28.413 60.553-43.784l-0.466 6.055 2.329-7.453c2.329 2.329 4.192 0.466 5.124-0.931 2.795-4.658 6.521-9.316 12.577-13.508-7.453 20.029-16.303 35.866-27.482 48.908l-4.658 5.59c0 3.261-0.932 7.453-4.658 7.918-1.863 0.466-5.59-0.932-8.384 1.863-1.397 1.863 3.261 5.59-0.466 2.795-3.261-2.329-6.521 0-10.248 0.932-2.795 0.932 1.863 3.726 2.795 5.589 0.932 1.863 1.863 3.726 1.398 6.056l-5.124-5.59c-6.055 3.261-9.782 9.316-14.906 13.974-2.329 1.863-1.397 5.124-1.397 7.918-3.261 0-6.987-0.932-8.85 0.932-1.397 1.863-0.932 4.658-0.932 7.453-4.658-0.466-5.124-7.453-9.315-6.056-4.192 0.932-8.85 1.397-12.577 3.727 2.795 5.59-4.658 2.329-3.726 3.26-6.987-4.192-13.042-7.453-20.495-4.658-15.837-5.124-35.4-2.795-49.84-0.931 0-2.329 0.466-4.658-0.466-5.124-0.932 2.329-3.726 1.397-3.26 1.397-8.85-6.055-17.7-9.782-27.016-14.905-8.384 0.932-16.303-3.261-18.632-5.59-6.521-6.055-13.974-2.795-20.029-4.192-13.042-3.261-17.7-16.769-19.098-26.084-0.932-4.658-4.658-6.521-6.055-6.056-6.055-19.563-15.371-37.263-22.824-55.429-1.863-4.658-1.397-9.316-1.397-14.44 2.329 0.932 4.658 0.466 4.192-2.794-2.329-15.371-7.918-27.016-13.974-38.195 3.261-15.837 3.726-34.469 11.179-48.443 6.521-12.576 18.632-19.098 27.016-29.811 2.795-3.726 2.795-8.85 5.59-12.11 9.316-9.316 18.632-19.098 28.879-27.482 4.658-3.726 10.247 0 17.234-1.397 2.329-8.384 11.645-15.837 20.495-13.508 3.726 0.932 11.179-8.85 13.508-9.782 3.726-1.397 1.863 3.726 1.863 6.987 8.85-6.987 20.961-10.713 32.14-14.906" fill="#4d7e3e" fill-rule="nonzero" stroke="none" stroke-width="1" stroke-linecap="butt" stroke-linejoin="miter" stroke-miterlimit="10" stroke-dasharray="" stroke-dashoffset="0" font-family="none" font-weight="none" font-size="none" text-anchor="none" style="mix-blend-mode: normal" data-fill-palette-color="tertiary"></path></g><g transform="matrix(1,0,0,1,64,159.70138275580575)"><svg viewBox="0 0 192 40.597234488388466" height="40.597234488388466" width="192"><g><svg viewBox="0 0 192 40.597234488388466" height="40.597234488388466" width="192"><g><svg viewBox="0 0 192 40.597234488388466" height="40.597234488388466" width="192"><g transform="matrix(1,0,0,1,0,24.537719056599983)"><svg viewBox="0 0 192 16.05951543178848" height="16.05951543178848" width="192"><g id="textblocktransform"><svg viewBox="0 0 192 16.05951543178848" height="16.05951543178848" width="192" id="textblock"><g><svg viewBox="0 0 192 16.05951543178848" height="16.05951543178848" width="192"><g transform="matrix(1,0,0,1,0,0)"><svg width="192" viewBox="1.4600000381469727 -39.209999084472656 485.6499938964844 40.62999725341797" height="16.05951543178848" data-palette-color="#4d7e3e"><path d="M6.35-30.76L17.24-31.01Q22.12-31.01 23.73-30.37L23.73-30.37 23.73-27.98Q22.41-27.78 20.12-27.76 17.82-27.73 15.23-27.69L15.23-27.69Q8.01-27.54 5.37-26.95L5.37-26.95Q4.54-23.05 4.59-21.63 4.64-20.21 4.69-19.43L4.69-19.43Q4.88-17.53 4.88-14.94L4.88-14.94Q8.2-14.94 12.48-15.53 16.75-16.11 19.09-16.38 21.44-16.65 23.93-16.65L23.93-16.65 23.93-13.96 5.22-11.62 5.52-3.61Q10.35-3.61 15.41-4.08 20.46-4.54 23.07-4.76 25.68-4.98 28.61-4.98L28.61-4.98Q28.61-4 28.03-3.13L28.03-3.13Q26.86-1.56 25.93-2.2L25.93-2.2Q17.33-1.27 10.57-0.73 3.81-0.2 1.46 0L1.46 0 1.66-31.15Q2.93-30.76 6.35-30.76L6.35-30.76ZM49.9-7.71L49.95-10.69Q49.95-16.5 49.31-19.24L49.31-19.24Q49.7-19.97 48.14-19.97L48.14-19.97Q46.48-19.97 43.85-19.14 41.21-18.31 39.55-17.48L39.55-17.48Q35.59-15.58 35.15-13.77L35.15-13.77 35.15-0.49 31.88-0.49Q31.25-2.15 31.25-9.81L31.25-9.81Q31.25-16.65 31.52-19.87 31.78-23.1 31.93-23.54L31.93-23.54Q33.2-24.37 33.98-24.37L33.98-24.37Q35.2-24.37 35.2-21.48L35.2-21.48Q35.2-20.36 35.08-19.31 34.96-18.26 34.96-17.87L34.96-17.87Q42.87-23.68 47.21-23.68L47.21-23.68Q52.15-23.68 52.83-15.72L52.83-15.72Q53.12-12.94 53.12-8.01L53.12-8.01 53.07-4.15Q53.07-2 53.17 0L53.17 0Q52.68 0.29 52.39 0.29L52.39 0.29Q52.24 0.24 51.76 0.15 51.27 0.05 50.49 0L50.49 0Q50-1.95 49.95-3.98 49.9-6.01 49.9-7.71L49.9-7.71ZM56.34-18.9L56.34-18.9Q56.25-19.14 56.25-19.46 56.25-19.78 56.49-20.31 56.73-20.85 57.2-21.24 57.66-21.63 58.22-21.61 58.78-21.58 59.13-20.9L59.13-20.9 67.33-5.66Q67.72-6.25 68.57-7.84 69.43-9.42 70.53-11.43 71.63-13.43 72.82-15.6 74.02-17.77 75.04-19.58L75.04-19.58Q77.39-23.73 77.83-23.73L77.83-23.73Q78.85-23.73 79.32-22.97 79.78-22.22 79.78-21.83 79.78-21.44 79.78-21.29L79.78-21.29Q77.05-15.33 74.73-10.3 72.41-5.27 71.65-3.78 70.89-2.29 70.31-1.42L70.31-1.42Q69.28 0.1 68.31 0.1 67.33 0.1 66.06-1.44 64.79-2.98 63.18-5.57L63.18-5.57Q60.35-10.25 56.34-18.9ZM83.15-22.95L86.22-22.95Q86.86-13.82 87.3-1.81L87.3-1.81Q87-0.29 84.95-0.29L84.95-0.29Q84.42-0.29 83.85-0.51 83.29-0.73 83.15-1.12L83.15-1.12 83.15-22.95ZM81.68-29.59L81.68-29.59Q81.68-31.3 83.68-31.3L83.68-31.3Q85-31.3 85.83-30.71L85.83-30.71Q85.98-30.18 85.98-29.66 85.98-29.15 85.59-28.66L85.59-28.66Q85.2-28.17 84.42-28.17 83.64-28.17 82.85-28.54 82.07-28.91 81.68-29.59ZM113.37-17.82L113.37-17.82Q111.32-19.29 108.1-19.29L108.1-19.29Q105.07-19.29 102.48-18.16L102.48-18.16Q97.6-16.11 95.79-12.89L95.79-12.89Q95.01-11.43 95.01-9.77L95.01-9.77Q95.01-9.47 95.01-8.13 95.01-6.79 95.5-4.52 95.99-2.25 95.99 0.1L95.99 0.1Q94.96 0.15 94.33 0.34 93.69 0.54 93.25 0.54 92.81 0.54 92.49 0.15 92.18-0.24 91.79-1.37L91.79-1.37Q91.74-1.66 91.59-3.03 91.45-4.39 91.23-6.35 91.01-8.3 90.74-10.62 90.47-12.94 90.22-15.19L90.22-15.19Q89.69-20.07 89.39-22.36L89.39-22.36Q89.39-23.54 91.1-23.54L91.1-23.54Q92.13-23.54 92.71-22.68 93.3-21.83 93.64-20.73 93.98-19.63 94.11-18.55 94.23-17.48 94.33-17.04L94.33-17.04Q100.77-22.8 110.34-22.8L110.34-22.8Q111.42-22.8 112.59-22.75L112.59-22.75Q112.88-22.8 113.32-22.8 113.76-22.8 114.2-22.22L114.2-22.22Q114.74-21.53 114.74-20.56L114.74-20.56Q114.74-18.12 113.37-17.82ZM118.2-9.28L118.2-9.28Q118.2-15.04 123.18-18.55L123.18-18.55Q127.14-21.34 132.7-21.92L132.7-21.92Q133-21.92 134.07-21.92 135.14-21.92 136.95-21.29L136.95-21.29Q140.95-19.92 142.42-16.46L142.42-16.46Q143.01-15.09 143.01-14.14 143.01-13.18 142.96-12.79L142.96-12.79Q142.96-6.69 138.32-3.17L138.32-3.17Q134.02 0.05 127.58 0.05L127.58 0.05Q122.94 0.05 120.57-2.1 118.2-4.25 118.2-9.28ZM121.57-8.11L121.57-8.11Q121.57-5.08 123.18-4L123.18-4Q124.4-3.22 127.28-3.22 130.16-3.22 132.36-3.66 134.56-4.1 136.27-5.18L136.27-5.18Q139.93-7.52 139.93-12.45L139.93-12.45Q139.93-15.38 138.37-17.24L138.37-17.24Q136.66-19.24 133.87-19.24L133.87-19.24Q131.97-18.9 130.04-18.51 128.11-18.12 126.4-16.99L126.4-16.99Q122.69-14.6 121.57-8.11ZM189.29-27.1L189.29-27.1Q186.12-30.22 182.26-30.22L182.26-30.22Q178.6-30.22 175.23-27.44L175.23-27.44Q170.98-23.93 169.37-18.36L169.37-18.36Q168.78-16.36 168.78-15.04 168.78-13.72 168.88-12.99L168.88-12.99Q168.88-8.15 172.15-5.57L172.15-5.57Q175.23-3.17 180.01-3.17L180.01-3.17Q186.55-3.71 192.56-8.2L192.56-8.2Q194.22-9.47 196.08-10.64L196.08-10.64Q196.76-10.64 197.47-10.45 198.18-10.25 198.18-9.33L198.18-9.33Q193.34-5.13 190.02-3.27L190.02-3.27Q183.87 0.05 178.89 0.05L178.89 0.05Q178.55 0.05 178.25 0.05L178.25 0.05Q172.83 0.05 168.98-3.32L168.98-3.32Q164.88-6.88 164.88-12.21L164.88-12.21Q164.88-16.21 166.32-19.87 167.76-23.54 170.27-26.34 172.79-29.15 176.23-30.81 179.67-32.47 183.63-32.47L183.63-32.47Q186.99-32.47 188.02-31.54L188.02-31.54Q189.29-30.42 189.29-27.1ZM219.71-8.11L219.71-8.11Q216.04-2.34 209.94-0.98L209.94-0.98Q208.52-0.68 207.38-0.68 206.23-0.68 205.47-0.71 204.72-0.73 203.79-0.93 202.86-1.12 202.08-1.56L202.08-1.56Q200.27-2.59 200.27-4.44L200.27-4.44Q200.08-5.32 200.08-6.42 200.08-7.52 200.57-9.33 201.05-11.13 202.35-13.23 203.64-15.33 205.5-17.09L205.5-17.09Q209.36-20.8 213.85-21.88L213.85-21.88Q215.17-22.17 216.26-22.17 217.36-22.17 218.24-22.02L218.24-22.02Q221.07-22.02 222.05-18.16L222.05-18.16Q222.69-15.72 222.81-11.35 222.93-6.98 223.05-4.61 223.17-2.25 223.66-0.29L223.66-0.29 220.78-0.29Q220.59-1.61 220.49-2.64 220.39-3.66 220.29-4.54L220.29-4.54Q220.05-6.59 219.71-8.11ZM219.51-15.67L219.51-15.67Q219.51-18.51 216.73-18.51L216.73-18.51Q216.39-18.55 216.04-18.55L216.04-18.55Q212.48-18.55 208.52-15.14L208.52-15.14Q206.67-13.57 205.35-11.62L205.35-11.62Q203.4-8.84 203.4-6.64L203.4-6.64Q203.4-3.76 206.72-3.22L206.72-3.22Q211.11-3.32 215.12-7.23L215.12-7.23Q216.83-8.94 217.95-10.94L217.95-10.94Q219.51-13.62 219.51-15.67ZM249.93-17.82L249.93-17.82Q247.88-19.29 244.66-19.29L244.66-19.29Q241.63-19.29 239.04-18.16L239.04-18.16Q234.16-16.11 232.35-12.89L232.35-12.89Q231.57-11.43 231.57-9.77L231.57-9.77Q231.57-9.47 231.57-8.13 231.57-6.79 232.06-4.52 232.55-2.25 232.55 0.1L232.55 0.1Q231.52 0.15 230.89 0.34 230.25 0.54 229.81 0.54 229.37 0.54 229.05 0.15 228.74-0.24 228.35-1.37L228.35-1.37Q228.3-1.66 228.15-3.03 228-4.39 227.79-6.35 227.57-8.3 227.3-10.62 227.03-12.94 226.78-15.19L226.78-15.19Q226.25-20.07 225.95-22.36L225.95-22.36Q225.95-23.54 227.66-23.54L227.66-23.54Q228.69-23.54 229.27-22.68 229.86-21.83 230.2-20.73 230.54-19.63 230.67-18.55 230.79-17.48 230.89-17.04L230.89-17.04Q237.33-22.8 246.9-22.8L246.9-22.8Q247.98-22.8 249.15-22.75L249.15-22.75Q249.44-22.8 249.88-22.8 250.32-22.8 250.76-22.22L250.76-22.22Q251.3-21.53 251.3-20.56L251.3-20.56Q251.3-18.12 249.93-17.82ZM263.5-3.42L263.5-3.42Q267.8-3.42 276.44-7.32L276.44-7.32Q276.98-7.32 277.32-6.96 277.66-6.59 277.66-6.1L277.66-6.1Q275.71-2.78 270.19-0.93 264.67 0.93 259.89-0.29L259.89-0.29Q254.47-1.71 253.3-6.4L253.3-6.4Q253.2-7.32 253.2-8.89 253.2-10.45 254-13.01 254.81-15.58 256.76-17.87 258.72-20.17 261.35-21.48 263.99-22.8 266.97-22.8L266.97-22.8Q269.8-22.8 273.31-20.85L273.31-20.85Q274.98-19.92 275.95-18.75 276.93-17.58 276.93-16.36L276.93-16.36Q276.93-16.02 276.88-15.67L276.88-15.67Q276.78-12.7 274-11.91L274-11.91Q272.78-11.57 271.17-11.57L271.17-11.57 264.14-11.87Q260.62-11.87 258.76-10.35L258.76-10.35Q257.69-9.52 257.25-7.86L257.25-7.86Q258.47-3.42 263.5-3.42ZM272.22-18.51Q271.12-19.29 269.95-19.63 268.77-19.97 267.99-19.97 267.21-19.97 265.45-19.46 263.7-18.95 262.33-18.31L262.33-18.31Q258.96-16.75 258.96-15.04L258.96-15.04Q262.87-14.7 264.82-14.7L264.82-14.7Q270.24-14.7 272.14-15.63L272.14-15.63Q273.31-16.11 273.31-16.85L273.31-16.85Q273.31-17.72 272.22-18.51ZM323.21-23.97L323.21-23.97 318.87-24.07Q317.16-24.07 314.91-23.73L314.91-23.73Q314.81-21.83 314.52-18.8L314.52-18.8Q313.5-8.06 313.5-4.86 313.5-1.66 313.59-0.34L313.59-0.34 309 0 310.52-24.12 300.12-24.71Q299.73-24.71 299.51-25.34 299.29-25.98 299.29-26.51 299.29-27.05 299.73-27.69 300.17-28.32 300.75-28.32L300.75-28.32Q304.32-28.17 307.93-27.83L307.93-27.83Q314.62-27.25 319.31-27.25L319.31-27.25 322.33-27.34Q325.9-27.44 329.41-28.13L329.41-28.13Q330.19-27.98 330.39-25.68L330.39-25.68Q330.44-25.2 330.44-24.9L330.44-24.9Q327.22-23.97 323.21-23.97ZM355.73-17.82L355.73-17.82Q353.68-19.29 350.46-19.29L350.46-19.29Q347.43-19.29 344.84-18.16L344.84-18.16Q339.96-16.11 338.15-12.89L338.15-12.89Q337.37-11.43 337.37-9.77L337.37-9.77Q337.37-9.47 337.37-8.13 337.37-6.79 337.86-4.52 338.35-2.25 338.35 0.1L338.35 0.1Q337.32 0.15 336.69 0.34 336.05 0.54 335.61 0.54 335.17 0.54 334.86 0.15 334.54-0.24 334.15-1.37L334.15-1.37Q334.1-1.66 333.95-3.03 333.81-4.39 333.59-6.35 333.37-8.3 333.1-10.62 332.83-12.94 332.58-15.19L332.58-15.19Q332.05-20.07 331.75-22.36L331.75-22.36Q331.75-23.54 333.46-23.54L333.46-23.54Q334.49-23.54 335.07-22.68 335.66-21.83 336-20.73 336.34-19.63 336.47-18.55 336.59-17.48 336.69-17.04L336.69-17.04Q343.13-22.8 352.7-22.8L352.7-22.8Q353.78-22.8 354.95-22.75L354.95-22.75Q355.24-22.8 355.68-22.8 356.12-22.8 356.56-22.22L356.56-22.22Q357.1-21.53 357.1-20.56L357.1-20.56Q357.1-18.12 355.73-17.82ZM378.53-8.11L378.53-8.11Q374.87-2.34 368.76-0.98L368.76-0.98Q367.35-0.68 366.2-0.68 365.05-0.68 364.3-0.71 363.54-0.73 362.61-0.93 361.68-1.12 360.9-1.56L360.9-1.56Q359.1-2.59 359.1-4.44L359.1-4.44Q358.9-5.32 358.9-6.42 358.9-7.52 359.39-9.33 359.88-11.13 361.17-13.23 362.47-15.33 364.32-17.09L364.32-17.09Q368.18-20.8 372.67-21.88L372.67-21.88Q373.99-22.17 375.09-22.17 376.19-22.17 377.06-22.02L377.06-22.02Q379.9-22.02 380.87-18.16L380.87-18.16Q381.51-15.72 381.63-11.35 381.75-6.98 381.87-4.61 382-2.25 382.48-0.29L382.48-0.29 379.6-0.29Q379.41-1.61 379.31-2.64 379.21-3.66 379.12-4.54L379.12-4.54Q378.87-6.59 378.53-8.11ZM378.33-15.67L378.33-15.67Q378.33-18.51 375.55-18.51L375.55-18.51Q375.21-18.55 374.87-18.55L374.87-18.55Q371.3-18.55 367.35-15.14L367.35-15.14Q365.49-13.57 364.17-11.62L364.17-11.62Q362.22-8.84 362.22-6.64L362.22-6.64Q362.22-3.76 365.54-3.22L365.54-3.22Q369.94-3.32 373.94-7.23L373.94-7.23Q375.65-8.94 376.77-10.94L376.77-10.94Q378.33-13.62 378.33-15.67ZM407.87-39.21Q407.87-34.52 407.6-30.05 407.34-25.59 407.12-21.31 406.9-17.04 406.9-12.23 406.9-7.42 407.58-2.05L407.58-2.05Q407.58-0.93 407.16-0.44 406.75 0.05 405.77 0.05L405.77 0.05Q403.48 0.05 403.48-3.76L403.48-3.76 403.48-5.37Q396.54-0.2 391.76-0.2L391.76-0.2Q389.86-0.2 387.88-1.12 385.9-2.05 384.14-4.88L384.14-4.88Q383.9-6.05 383.9-7.28 383.9-8.5 384.36-10.23 384.83-11.96 386.27-13.82 387.71-15.67 389.76-17.09L389.76-17.09Q394.25-20.12 399.47-20.12L399.47-20.12Q401.72-20.12 403.77-19.43L403.77-19.43Q403.77-20.31 403.89-22.51 404.02-24.71 404.16-27.15L404.16-27.15Q404.45-33.5 404.55-34.64 404.65-35.79 404.82-36.6 404.99-37.4 405.33-37.99L405.33-37.99Q406.07-39.21 407.87-39.21L407.87-39.21ZM387.46-7.67L387.46-7.67Q387.46-3.81 390.25-3.81L390.25-3.81Q390.69-3.81 391.22-3.91L391.22-3.91Q393.22-3.91 396.15-5.08L396.15-5.08Q401.72-7.28 402.94-8.89L402.94-8.89 402.94-15.38Q402.94-17.09 400.16-17.09L400.16-17.09Q399.82-17.14 399.25-17.14 398.69-17.14 397.52-16.89 396.35-16.65 394.88-16.02 393.42-15.38 392-14.45L392-14.45Q389.03-12.45 387.9-9.77L387.9-9.77Q387.46-8.74 387.46-7.67ZM420.37-3.42L420.37-3.42Q424.67-3.42 433.31-7.32L433.31-7.32Q433.85-7.32 434.19-6.96 434.53-6.59 434.53-6.1L434.53-6.1Q432.58-2.78 427.06-0.93 421.54 0.93 416.76-0.29L416.76-0.29Q411.34-1.71 410.17-6.4L410.17-6.4Q410.07-7.32 410.07-8.89 410.07-10.45 410.87-13.01 411.68-15.58 413.63-17.87 415.59-20.17 418.22-21.48 420.86-22.8 423.84-22.8L423.84-22.8Q426.67-22.8 430.18-20.85L430.18-20.85Q431.84-19.92 432.82-18.75 433.8-17.58 433.8-16.36L433.8-16.36Q433.8-16.02 433.75-15.67L433.75-15.67Q433.65-12.7 430.87-11.91L430.87-11.91Q429.65-11.57 428.04-11.57L428.04-11.57 421-11.87Q417.49-11.87 415.63-10.35L415.63-10.35Q414.56-9.52 414.12-7.86L414.12-7.86Q415.34-3.42 420.37-3.42ZM429.09-18.51Q427.99-19.29 426.82-19.63 425.64-19.97 424.86-19.97 424.08-19.97 422.32-19.46 420.57-18.95 419.2-18.31L419.2-18.31Q415.83-16.75 415.83-15.04L415.83-15.04Q419.74-14.7 421.69-14.7L421.69-14.7Q427.11-14.7 429.01-15.63L429.01-15.63Q430.18-16.11 430.18-16.85L430.18-16.85Q430.18-17.72 429.09-18.51ZM461.43-17.82L461.43-17.82Q459.38-19.29 456.16-19.29L456.16-19.29Q453.13-19.29 450.54-18.16L450.54-18.16Q445.66-16.11 443.85-12.89L443.85-12.89Q443.07-11.43 443.07-9.77L443.07-9.77Q443.07-9.47 443.07-8.13 443.07-6.79 443.56-4.52 444.05-2.25 444.05 0.1L444.05 0.1Q443.02 0.15 442.39 0.34 441.75 0.54 441.31 0.54 440.88 0.54 440.56 0.15 440.24-0.24 439.85-1.37L439.85-1.37Q439.8-1.66 439.65-3.03 439.51-4.39 439.29-6.35 439.07-8.3 438.8-10.62 438.53-12.94 438.29-15.19L438.29-15.19Q437.75-20.07 437.46-22.36L437.46-22.36Q437.46-23.54 439.17-23.54L439.17-23.54Q440.19-23.54 440.78-22.68 441.36-21.83 441.71-20.73 442.05-19.63 442.17-18.55 442.29-17.48 442.39-17.04L442.39-17.04Q448.83-22.8 458.4-22.8L458.4-22.8Q459.48-22.8 460.65-22.75L460.65-22.75Q460.94-22.8 461.38-22.8 461.82-22.8 462.26-22.22L462.26-22.22Q462.8-21.53 462.8-20.56L462.8-20.56Q462.8-18.12 461.43-17.82ZM481.74-12.6L481.74-12.6Q487.11-12.6 487.11-9.86L487.11-9.86Q487.11-7.81 484.13-5.08L484.13-5.08Q479.69-1.03 472.17 1.42L472.17 1.42Q471.83 1.42 471.41 0.73 471 0.05 470.78-0.32 470.56-0.68 470.46-0.78L470.46-0.78Q476.08-2.64 479.69-5.27L479.69-5.27Q482.13-7.03 482.13-8.15 482.13-9.28 479.25-9.28 476.37-9.28 470.8-7.91L470.8-7.91Q468.27-8.01 466.41-9.72L466.41-9.72Q464.8-11.23 464.8-12.77 464.8-14.31 465.68-15.6 466.56-16.89 468.02-18.02 469.49-19.14 471.44-20.07L471.44-20.07Q476.22-22.36 481.35-22.36L481.35-22.36Q482.87-22.36 484.28-22.07L484.28-22.07Q485.45-22.07 485.65-21.04 485.84-20.02 485.84-17.68L485.84-17.68Q482.96-18.99 479.35-18.99L479.35-18.99Q474.86-18.99 471.93-17.19L471.93-17.19Q468.9-15.43 468.8-12.6L468.8-12.6Q468.8-11.23 470.8-11.23L470.8-11.23 474.37-11.62Q478.96-12.6 481.74-12.6Z" opacity="1" transform="matrix(1,0,0,1,0,0)" fill="#4d7e3e" class="wordmark-text-0" data-fill-palette-color="primary" id="text-0"></path></svg></g></svg></g></svg></g></svg></g><g transform="matrix(1,0,0,1,80.76939039473527,0)"><svg viewBox="0 0 30.46121921052945 22.19425032673168" height="22.19425032673168" width="30.46121921052945"><g><svg xmlns="http://www.w3.org/2000/svg" xml:space="preserve" viewBox="0 0 326.9020080566406 238.18301391601562" x="0" y="0" height="22.19425032673168" width="30.46121921052945" class="icon-icon-0" data-fill-palette-color="accent" id="icon-0"><path d="M0 134.621h47.141l43.813 43.814-46.905 46.905 8.161 8.161 46.905-46.905 46.905 46.905 8.161-8.161-46.905-46.905 43.813-43.814h47.141v-14.62H0z m99.115 35.651l-35.651-35.651h71.303zM316.326 60.235c-4.805-3.126-9.97-5.043-14.065-6.349-4.086-1.282-7.078-1.876-7.279-1.917a8 8 0 0 0-1.267-0.138 7.8 7.8 0 0 0-1.397-0.133H291v39.306c3.845-2.09 6.79-3.92 9.046-5.468v-15.51a46 46 0 0 1 3.914 1.615c2.471 1.143 4.658 2.556 5.798 3.7 1.191 1.229 1.131 1.6 1.142 1.721 0 0.052-0.004 0.146-0.045 0.336l-0.001 0.007c-0.097 0.599-1.017 2.55-3.976 5.312a35 35 0 0 1-1.982 1.714c-4.536 3.695-12.064 8.297-23.267 13.496a8.002 8.002 0 0 0 6.745 14.511c11.963-5.571 20.492-10.638 26.603-15.584a58 58 0 0 0 2.966-2.593c4.265-3.998 7.141-8.114 8.395-12.878 0.04-0.138 0.083-0.274 0.115-0.416 0.291-1.277 0.449-2.593 0.449-3.904 0.009-2.93-0.801-5.719-2.036-8.011-2.192-4.04-5.363-6.708-8.54-8.817M261 51.699h24V70h-24z" fill="#4d7e3e" data-fill-palette-color="accent"></path><path d="M291 113.411V126h-36V51.699h-1.317c-0.47 0-0.928 0.049-1.375 0.129a8 8 0 0 0-2.857 0.622l-0.001-0.001h-0.002v0.001l0.001 0.001h-0.001v-0.001c-0.688 0.279-11.203 4.364-27.896 4.36-11.345-0.004-25.547-1.866-41.671-8.091-4.122-1.591-8.755 0.459-10.345 4.581a8 8 0 0 0 4.581 10.345c18.083 6.987 34.332 9.168 47.435 9.164 10.234-0.004 18.541-1.316 24.401-2.675V225.82c0 6.828 5.537 12.363 12.363 12.363 6.828 0 12.365-5.535 12.365-12.363v-90.273h4.635v90.273c0 6.828 5.537 12.363 12.363 12.363 6.828 0 12.365-5.535 12.365-12.363V108.848a199 199 0 0 1-9.044 4.563" fill="#4d7e3e" data-fill-palette-color="accent"></path><circle cx="273" cy="22.5" r="22.5" fill="#4d7e3e" data-fill-palette-color="accent"></circle><path d="M8 63.001h51v51H8zM65 87.001h27v27H65zM98 87.001h27v27H98zM130 87.001h27v27h-27zM163 87.001h27v27h-27z" fill="#4d7e3e" data-fill-palette-color="accent"></path></svg></g></svg></g><g></g></svg></g></svg></g></svg></g></svg></g><defs></defs></svg>